<svg width="32" height="32" viewBox="0 0 32 32" fill="none" xmlns="http://www.w3.org/2000/svg">
<path fill-rule="evenodd" clip-rule="evenodd" d="M16.0001 2.6665C8.63628 2.6665 2.66675 8.63604 2.66675 15.9998C2.66675 23.3636 8.63628 29.3332 16.0001 29.3332C23.3639 29.3332 29.3334 23.3636 29.3334 15.9998C29.3334 8.63604 23.3639 2.6665 16.0001 2.6665ZM16.0001 9.33317C16.7365 9.33317 17.3334 9.93012 17.3334 10.6665V15.9998C17.3334 16.7362 16.7365 17.3332 16.0001 17.3332C15.2637 17.3332 14.6667 16.7362 14.6667 15.9998V10.6665C14.6667 9.93012 15.2637 9.33317 16.0001 9.33317ZM14.6667 21.3332C14.6667 20.5968 15.2637 19.9998 16.0001 19.9998H16.0134C16.7498 19.9998 17.3467 20.5968 17.3467 21.3332C17.3467 22.0695 16.7498 22.6665 16.0134 22.6665H16.0001C15.2637 22.6665 14.6667 22.0695 14.6667 21.3332Z" fill="#3E74DA"/>
</svg>
