<svg width="32" height="32" viewBox="0 0 32 32" fill="none" xmlns="http://www.w3.org/2000/svg">
<path fill-rule="evenodd" clip-rule="evenodd" d="M16 2.6665C8.63616 2.6665 2.66663 8.63604 2.66663 15.9998C2.66663 23.3636 8.63616 29.3332 16 29.3332C23.3638 29.3332 29.3333 23.3636 29.3333 15.9998C29.3333 8.63604 23.3638 2.6665 16 2.6665ZM16 9.33317C16.7363 9.33317 17.3333 9.93012 17.3333 10.6665V15.9998C17.3333 16.7362 16.7363 17.3332 16 17.3332C15.2636 17.3332 14.6666 16.7362 14.6666 15.9998V10.6665C14.6666 9.93012 15.2636 9.33317 16 9.33317ZM14.6666 21.3332C14.6666 20.5968 15.2636 19.9998 16 19.9998H16.0133C16.7497 19.9998 17.3466 20.5968 17.3466 21.3332C17.3466 22.0695 16.7497 22.6665 16.0133 22.6665H16C15.2636 22.6665 14.6666 22.0695 14.6666 21.3332Z" fill="#3E74DA"/>
</svg>
