<svg width="56" height="56" viewBox="0 0 56 56" fill="none" xmlns="http://www.w3.org/2000/svg">
<path fill-rule="evenodd" clip-rule="evenodd" d="M16.3333 4.66675C9.88997 4.66675 4.66663 9.89009 4.66663 16.3334V39.6668C4.66663 46.1101 9.88997 51.3334 16.3333 51.3334H39.6666C46.11 51.3334 51.3333 46.1101 51.3333 39.6668V16.3334C51.3333 9.89009 46.11 4.66675 39.6666 4.66675H16.3333ZM37.3333 16.3334C38.622 16.3334 39.6666 17.3781 39.6666 18.6667V37.3334C39.6666 38.6221 38.622 39.6668 37.3333 39.6668C36.0446 39.6668 35 38.6221 35 37.3334V18.6667C35 17.3781 36.0446 16.3334 37.3333 16.3334ZM18.6666 30.3334C19.9553 30.3334 21 31.3781 21 32.6667V37.3334C21 38.6221 19.9553 39.6668 18.6666 39.6668C17.378 39.6668 16.3333 38.6221 16.3333 37.3334V32.6667C16.3333 31.3781 17.378 30.3334 18.6666 30.3334ZM30.3333 25.6667C30.3333 24.3781 29.2886 23.3334 28 23.3334C26.7113 23.3334 25.6666 24.3781 25.6666 25.6667V37.3334C25.6666 38.6221 26.7113 39.6668 28 39.6668C29.2886 39.6668 30.3333 38.6221 30.3333 37.3334V25.6667Z" fill="#323232"/>
</svg>
