<svg width="56" height="56" viewBox="0 0 56 56" fill="none" xmlns="http://www.w3.org/2000/svg">
<path fill-rule="evenodd" clip-rule="evenodd" d="M16.3334 4.66675C9.89003 4.66675 4.66669 9.89009 4.66669 16.3334V39.6668C4.66669 46.1101 9.89003 51.3334 16.3334 51.3334H39.6667C46.11 51.3334 51.3334 46.1101 51.3334 39.6668V16.3334C51.3334 9.89009 46.11 4.66675 39.6667 4.66675H16.3334ZM30.3334 18.6667C30.3334 17.3781 29.2887 16.3334 28 16.3334C26.7114 16.3334 25.6667 17.3781 25.6667 18.6667V37.3334C25.6667 38.6221 26.7114 39.6668 28 39.6668C29.2887 39.6668 30.3334 38.6221 30.3334 37.3334V18.6667ZM18.6667 23.3334C19.9554 23.3334 21 24.3781 21 25.6667V37.3334C21 38.6221 19.9554 39.6668 18.6667 39.6668C17.378 39.6668 16.3334 38.6221 16.3334 37.3334V25.6667C16.3334 24.3781 17.378 23.3334 18.6667 23.3334ZM37.3334 28.0001C38.622 28.0001 39.6667 29.0448 39.6667 30.3334V37.3334C39.6667 38.6221 38.622 39.6668 37.3334 39.6668C36.0447 39.6668 35 38.6221 35 37.3334V30.3334C35 29.0448 36.0447 28.0001 37.3334 28.0001Z" fill="#323232"/>
</svg>
