<svg width="32" height="32" viewBox="0 0 32 32" fill="none" xmlns="http://www.w3.org/2000/svg">
<path fill-rule="evenodd" clip-rule="evenodd" d="M16 2.6665C8.63616 2.6665 2.66663 8.63604 2.66663 15.9998C2.66663 23.3636 8.63616 29.3332 16 29.3332C23.3638 29.3332 29.3333 23.3636 29.3333 15.9998C29.3333 8.63604 23.3638 2.6665 16 2.6665ZM22.1869 10.9756C22.7526 11.447 22.829 12.2877 22.3576 12.8534L15.6909 20.8534C15.4582 21.1328 15.1214 21.3049 14.7587 21.33C14.396 21.3551 14.0388 21.231 13.7697 20.9865L9.76974 17.3501C9.22486 16.8548 9.18471 16.0115 9.68005 15.4666C10.1754 14.9217 11.0187 14.8816 11.5635 15.3769L14.5335 18.0769L20.309 11.1463C20.7804 10.5806 21.6212 10.5042 22.1869 10.9756Z" fill="#2CA900"/>
</svg>
