<svg width="32" height="32" viewBox="0 0 32 32" fill="none" xmlns="http://www.w3.org/2000/svg">
<path fill-rule="evenodd" clip-rule="evenodd" d="M16.0001 2.6665C8.63628 2.6665 2.66675 8.63604 2.66675 15.9998C2.66675 23.3636 8.63628 29.3332 16.0001 29.3332C23.3639 29.3332 29.3334 23.3636 29.3334 15.9998C29.3334 8.63604 23.3639 2.6665 16.0001 2.6665ZM22.187 10.9756C22.7527 11.447 22.8291 12.2877 22.3577 12.8534L15.6911 20.8534C15.4583 21.1328 15.1216 21.3049 14.7588 21.33C14.3961 21.3551 14.0389 21.231 13.7699 20.9865L9.76986 17.3501C9.22498 16.8548 9.18483 16.0115 9.68017 15.4666C10.1755 14.9217 11.0188 14.8816 11.5637 15.3769L14.5336 18.0769L20.3091 11.1463C20.7805 10.5806 21.6213 10.5042 22.187 10.9756Z" fill="#2CA900"/>
</svg>
