<svg width="48" height="48" viewBox="0 0 48 48" fill="none" xmlns="http://www.w3.org/2000/svg">
<path fill-rule="evenodd" clip-rule="evenodd" d="M12.3334 0.666748C5.89003 0.666748 0.666687 5.89009 0.666687 12.3334V35.6668C0.666687 42.1101 5.89003 47.3334 12.3334 47.3334H35.6667C42.11 47.3334 47.3334 42.1101 47.3334 35.6668V12.3334C47.3334 5.89009 42.11 0.666748 35.6667 0.666748H12.3334ZM26.3334 14.6667C26.3334 13.3781 25.2887 12.3334 24 12.3334C22.7114 12.3334 21.6667 13.3781 21.6667 14.6667V33.3334C21.6667 34.6221 22.7114 35.6668 24 35.6668C25.2887 35.6668 26.3334 34.6221 26.3334 33.3334V14.6667ZM14.6667 19.3334C15.9554 19.3334 17 20.3781 17 21.6667V33.3334C17 34.6221 15.9554 35.6668 14.6667 35.6668C13.378 35.6668 12.3334 34.6221 12.3334 33.3334V21.6667C12.3334 20.3781 13.378 19.3334 14.6667 19.3334ZM33.3334 24.0001C34.622 24.0001 35.6667 25.0448 35.6667 26.3334V33.3334C35.6667 34.6221 34.622 35.6668 33.3334 35.6668C32.0447 35.6668 31 34.6221 31 33.3334V26.3334C31 25.0448 32.0447 24.0001 33.3334 24.0001Z" fill="#323232"/>
</svg>
