<svg width="40" height="40" viewBox="0 0 40 40" fill="none" xmlns="http://www.w3.org/2000/svg">
<g clip-path="url(#clip0_245_109)">
<path d="M31.13 39.9888L8.90778 40.0099C4.0189 40.0143 0.015562 36.0188 0.0100065 31.1299L-0.0111047 8.90766C-0.0155491 4.01877 3.98001 0.01544 8.8689 0.00988441L31.0911 -0.0112268C35.98 -0.0156712 39.9833 3.97989 39.9889 8.86877L40.01 31.091C40.0156 35.981 36.0189 39.9843 31.13 39.9888Z" fill="white" fill-opacity="0.5"/>
<path d="M20 27.7777C15.7122 27.7777 12.2222 24.2888 12.2222 19.9999C12.2222 15.7111 15.7122 12.2222 20 12.2222C24.2878 12.2222 27.7778 15.7111 27.7778 19.9999C27.7778 24.2888 24.2878 27.7777 20 27.7777ZM20 14.4444C16.9367 14.4444 14.4445 16.9366 14.4445 19.9999C14.4445 23.0633 16.9367 25.5555 20 25.5555C23.0633 25.5555 25.5556 23.0633 25.5556 19.9999C25.5556 16.9366 23.0633 14.4444 20 14.4444Z" fill="#323232"/>
<path d="M28.3334 13.3333C29.2538 13.3333 30 12.5871 30 11.6667C30 10.7462 29.2538 10 28.3334 10C27.4129 10 26.6667 10.7462 26.6667 11.6667C26.6667 12.5871 27.4129 13.3333 28.3334 13.3333Z" fill="#323232"/>
<path d="M26.6667 34.4446H13.3333C9.04554 34.4446 5.55554 30.9557 5.55554 26.6668V13.3334C5.55554 9.04455 9.04554 5.55566 13.3333 5.55566H26.6667C30.9544 5.55566 34.4444 9.04455 34.4444 13.3334V26.6668C34.4444 30.9557 30.9544 34.4446 26.6667 34.4446ZM13.3333 7.77789C10.27 7.77789 7.77776 10.2701 7.77776 13.3334V26.6668C7.77776 29.7301 10.27 32.2223 13.3333 32.2223H26.6667C29.73 32.2223 32.2222 29.7301 32.2222 26.6668V13.3334C32.2222 10.2701 29.73 7.77789 26.6667 7.77789H13.3333Z" fill="#323232"/>
</g>
<defs>
<clipPath id="clip0_245_109">
<rect width="40" height="40" fill="white"/>
</clipPath>
</defs>
</svg>
