<svg width="40" height="40" viewBox="0 0 40 40" fill="none" xmlns="http://www.w3.org/2000/svg">
<rect width="40" height="40" rx="20" fill="white" fill-opacity="0.5"/>
<path d="M15.8683 24.8683C22.5858 31.5858 26.8284 30.1716 29.6569 27.3431C30.4379 26.5621 30.4379 25.2958 29.6569 24.5147L27.3367 22.1946C26.4702 21.3281 25.0653 21.3281 24.1988 22.1946C23.412 22.9814 22.2661 23.3262 21.2969 22.7794C20.7278 22.4584 20.0658 21.9947 19.4038 21.3327C18.7418 20.6708 18.2782 20.0088 17.9571 19.4396C17.4104 18.4704 17.7551 17.3246 18.542 16.5377C19.4085 15.6712 19.4085 14.2663 18.542 13.3998L16.2218 11.0797C15.4408 10.2986 14.1744 10.2986 13.3934 11.0797C10.565 13.9081 9.15076 18.1508 15.8683 24.8683Z" fill="#323232"/>
</svg>
