<svg width="40" height="40" viewBox="0 0 40 40" fill="none" xmlns="http://www.w3.org/2000/svg">
<path fill-rule="evenodd" clip-rule="evenodd" d="M1.01178 39.0068L3.68546 29.246C2.036 26.3897 1.16859 23.1483 1.16958 19.8285C1.17454 9.44247 9.62632 0.992676 20.0134 0.992676C25.0541 0.994661 29.7841 2.95675 33.3421 6.5167C36.8991 10.0776 38.8582 14.8097 38.8562 19.8434C38.8522 30.2295 30.3985 38.6803 20.0134 38.6803C20.0124 38.6803 20.0134 38.6803 20.0134 38.6803H20.0055C16.8524 38.6793 13.753 37.8883 11.0009 36.3867L1.01178 39.0068Z" fill="white" fill-opacity="0.5"/>
<path fill-rule="evenodd" clip-rule="evenodd" d="M15.3032 11.9541C14.9508 11.1701 14.5797 11.1542 14.2432 11.1403C13.9683 11.1284 13.6547 11.1294 13.3411 11.1294C13.0275 11.1294 12.5173 11.2475 12.0856 11.7189C11.6539 12.1904 10.4371 13.3287 10.4371 15.6451C10.4371 17.9615 12.1243 20.2005 12.3595 20.5141C12.5947 20.8277 15.6168 25.7334 20.4024 27.6211C24.3792 29.1892 25.189 28.8776 26.0525 28.7991C26.9159 28.7207 28.8383 27.6608 29.2303 26.5612C29.6223 25.4615 29.6223 24.5197 29.5052 24.3232C29.3871 24.1266 29.0735 24.0095 28.6031 23.7733C28.1327 23.5371 25.8173 22.3988 25.3855 22.242C24.9538 22.0852 24.6402 22.0068 24.3256 22.4782C24.012 22.9486 23.1098 24.0095 22.8349 24.3232C22.56 24.6378 22.2851 24.6775 21.8147 24.4413C21.3443 24.2051 19.8278 23.7088 18.0284 22.105C16.6291 20.8575 15.6843 19.3162 15.4094 18.8448C15.1344 18.3744 15.3796 18.1193 15.6158 17.8841C15.8272 17.6727 16.0862 17.3343 16.3224 17.0594C16.5576 16.7844 16.636 16.5879 16.7928 16.2743C16.9496 15.9597 16.8712 15.6848 16.7531 15.4496C16.637 15.2134 15.722 12.8851 15.3032 11.9541Z" fill="#323232"/>
</svg>
