<svg width="40" height="40" viewBox="0 0 40 40" fill="none" xmlns="http://www.w3.org/2000/svg">
<g clip-path="url(#clip0_106_1154)">
<path d="M31.13 39.9889L8.90778 40.01C4.0189 40.0145 0.015562 36.0189 0.0100065 31.13L-0.0111047 8.90778C-0.0155491 4.0189 3.98001 0.015562 8.8689 0.0100065L31.0911 -0.0111047C35.98 -0.0155491 39.9833 3.98001 39.9889 8.8689L40.01 31.0911C40.0156 35.9811 36.0189 39.9845 31.13 39.9889Z" fill="url(#paint0_radial_106_1154)"/>
<path d="M31.13 39.9889L8.90778 40.01C4.0189 40.0145 0.015562 36.0189 0.0100065 31.13L-0.0111047 8.90778C-0.0155491 4.0189 3.98001 0.015562 8.8689 0.0100065L31.0911 -0.0111047C35.98 -0.0155491 39.9833 3.98001 39.9889 8.8689L40.01 31.0911C40.0156 35.9811 36.0189 39.9845 31.13 39.9889Z" fill="url(#paint1_radial_106_1154)"/>
<path d="M20 27.7777C15.7122 27.7777 12.2222 24.2888 12.2222 19.9999C12.2222 15.7111 15.7122 12.2222 20 12.2222C24.2878 12.2222 27.7778 15.7111 27.7778 19.9999C27.7778 24.2888 24.2878 27.7777 20 27.7777ZM20 14.4444C16.9367 14.4444 14.4445 16.9366 14.4445 19.9999C14.4445 23.0633 16.9367 25.5555 20 25.5555C23.0633 25.5555 25.5556 23.0633 25.5556 19.9999C25.5556 16.9366 23.0633 14.4444 20 14.4444Z" fill="white"/>
<path d="M28.3334 13.3333C29.2538 13.3333 30 12.5871 30 11.6667C30 10.7462 29.2538 10 28.3334 10C27.4129 10 26.6667 10.7462 26.6667 11.6667C26.6667 12.5871 27.4129 13.3333 28.3334 13.3333Z" fill="white"/>
<path d="M26.6667 34.4444H13.3333C9.04554 34.4444 5.55554 30.9555 5.55554 26.6667V13.3333C5.55554 9.04443 9.04554 5.55554 13.3333 5.55554H26.6667C30.9544 5.55554 34.4444 9.04443 34.4444 13.3333V26.6667C34.4444 30.9555 30.9544 34.4444 26.6667 34.4444ZM13.3333 7.77776C10.27 7.77776 7.77776 10.27 7.77776 13.3333V26.6667C7.77776 29.73 10.27 32.2222 13.3333 32.2222H26.6667C29.73 32.2222 32.2222 29.73 32.2222 26.6667V13.3333C32.2222 10.27 29.73 7.77776 26.6667 7.77776H13.3333Z" fill="white"/>
</g>
<defs>
<radialGradient id="paint0_radial_106_1154" cx="0" cy="0" r="1" gradientUnits="userSpaceOnUse" gradientTransform="translate(14.8667 40.0389) scale(49.8878 49.8878)">
<stop stop-color="#FFDD55"/>
<stop offset="0.328" stop-color="#FF543F"/>
<stop offset="0.348" stop-color="#FC5245"/>
<stop offset="0.504" stop-color="#E64771"/>
<stop offset="0.643" stop-color="#D53E91"/>
<stop offset="0.761" stop-color="#CC39A4"/>
<stop offset="0.841" stop-color="#C837AB"/>
</radialGradient>
<radialGradient id="paint1_radial_106_1154" cx="0" cy="0" r="1" gradientUnits="userSpaceOnUse" gradientTransform="translate(6.4289 -0.510769) scale(33.1256 22.0716)">
<stop stop-color="#4168C9"/>
<stop offset="0.999" stop-color="#4168C9" stop-opacity="0"/>
</radialGradient>
<clipPath id="clip0_106_1154">
<rect width="40" height="40" fill="white"/>
</clipPath>
</defs>
</svg>
