<svg width="24" height="24" viewBox="0 0 24 24" fill="none" xmlns="http://www.w3.org/2000/svg">
<g clip-path="url(#clip0_365_601)">
<path fill-rule="evenodd" clip-rule="evenodd" d="M1.34939 6.12775C2.33865 4.07856 4.25845 2.5 6.49994 2.5C8.92424 2.5 10.5595 3.87633 11.5393 5.13606C11.7099 5.35539 11.8631 5.57408 11.9999 5.78566C12.1367 5.57408 12.29 5.35539 12.4606 5.13606C13.4404 3.87633 15.0756 2.5 17.5 2.5C19.7414 2.5 21.6612 4.07856 22.6505 6.12775C23.6573 8.21322 23.7924 10.9326 22.3741 13.4856C21.0178 15.9271 18.5001 18.156 16.4163 19.7346C15.3594 20.5353 14.3838 21.191 13.6721 21.6468C13.2851 21.8946 12.8958 22.1393 12.497 22.3677L11.5034 22.368C11.1043 22.1397 10.7149 21.8947 10.3278 21.6468C9.6161 21.191 8.64053 20.5353 7.58359 19.7346C5.49981 18.156 2.98214 15.9271 1.62579 13.4856C0.207441 10.9326 0.342609 8.21322 1.34939 6.12775ZM11.5034 22.368C11.8109 22.5437 12.1886 22.5439 12.4961 22.3682L11.5034 22.368Z" fill="white"/>
</g>
<defs>
<clipPath id="clip0_365_601">
<rect width="24" height="24" fill="white"/>
</clipPath>
</defs>
</svg>
