<svg width="56" height="56" viewBox="0 0 56 56" fill="none" xmlns="http://www.w3.org/2000/svg">
<path fill-rule="evenodd" clip-rule="evenodd" d="M28 4.66669C21.5567 4.66669 16.3333 9.89003 16.3333 16.3334C16.3333 22.7767 21.5567 28 28 28C34.4433 28 39.6666 22.7767 39.6666 16.3334C39.6666 9.89003 34.4433 4.66669 28 4.66669Z" fill="#323232"/>
<path fill-rule="evenodd" clip-rule="evenodd" d="M28 30.3333C18.7526 30.3333 12.8046 33.7078 9.6562 38.8617C7.70217 42.0605 8.45007 45.3894 10.4478 47.7107C12.3642 49.9375 15.4519 51.3333 18.6666 51.3333H37.3333C40.548 51.3333 43.6357 49.9375 45.5521 47.7107C47.5499 45.3894 48.2978 42.0605 46.3437 38.8617C43.1954 33.7078 37.2473 30.3333 28 30.3333Z" fill="#323232"/>
</svg>
