<svg width="24" height="24" viewBox="0 0 24 24" fill="none" xmlns="http://www.w3.org/2000/svg">
<g clip-path="url(#clip0_365_672)">
<path fill-rule="evenodd" clip-rule="evenodd" d="M20.5 1.5C21.0523 1.5 21.5 1.94772 21.5 2.5V8C21.5 8.55228 21.0523 9 20.5 9H20.0862C20.0722 9.0003 20.0582 9.00029 20.0442 9H15.25C14.6977 9 14.25 8.55228 14.25 8C14.25 7.44772 14.6977 7 15.25 7H18.2456C16.7787 5.17005 14.5254 4 12 4C8.19398 4 5.00658 6.65879 4.19821 10.2213C4.07599 10.7599 3.5403 11.0974 3.00171 10.9752C2.46312 10.853 2.12557 10.3173 2.24779 9.77871C3.25833 5.32525 7.23963 2 12 2C14.9877 2 17.6683 3.31034 19.5 5.38568V2.5C19.5 1.94772 19.9477 1.5 20.5 1.5ZM20.9982 13.0248C21.5368 13.147 21.8744 13.6827 21.7522 14.2213C20.7416 18.6747 16.7603 22 12 22C9.01226 22 6.33164 20.6897 4.49997 18.6143V21.5C4.49997 22.0523 4.05226 22.5 3.49997 22.5C2.94769 22.5 2.49997 22.0523 2.49997 21.5V16C2.49997 15.4477 2.94769 15 3.49997 15H3.91375C3.92776 14.9997 3.94175 14.9997 3.95572 15H8.74997C9.30226 15 9.74997 15.4477 9.74997 16C9.74997 16.5523 9.30226 17 8.74997 17H5.7544C7.2213 18.8299 9.47459 20 12 20C15.806 20 18.9934 17.3412 19.8018 13.7787C19.924 13.2401 20.4597 12.9026 20.9982 13.0248Z" fill="black" fill-opacity="0.15"/>
</g>
<defs>
<clipPath id="clip0_365_672">
<rect width="24" height="24" fill="white"/>
</clipPath>
</defs>
</svg>
