<svg width="56" height="56" viewBox="0 0 56 56" fill="none" xmlns="http://www.w3.org/2000/svg">
<path fill-rule="evenodd" clip-rule="evenodd" d="M29.9231 5.12285C28.6662 4.76374 27.3339 4.76374 26.077 5.12285L14.4103 8.45618C11.4052 9.31479 9.33337 12.0615 9.33337 15.1869V27.7272C9.33337 34.5092 12.6087 40.8737 18.1274 44.8156L23.9314 48.9614C26.3653 50.6999 29.6348 50.6999 32.0687 48.9614L37.8727 44.8156C43.3914 40.8737 46.6667 34.5092 46.6667 27.7272V15.1869C46.6667 12.0615 44.5949 9.31478 41.5898 8.45618L29.9231 5.12285ZM36.5959 19.2977C37.536 20.1791 37.5837 21.6557 36.7023 22.5959L27.9523 31.9292C27.1164 32.8208 25.7341 32.9164 24.7835 32.1482L19.5335 27.9058C18.5312 27.0958 18.3752 25.6267 19.1852 24.6244C19.9951 23.6221 21.4643 23.4661 22.4666 24.2761L26.0305 27.156L33.2978 19.4041C34.1792 18.464 35.6558 18.4164 36.5959 19.2977Z" fill="#323232"/>
</svg>
