<svg width="40" height="40" viewBox="0 0 40 40" fill="none" xmlns="http://www.w3.org/2000/svg">
<g clip-path="url(#clip0_106_1143)">
<path d="M40 20C40 31.045 31.045 40 20 40C8.955 40 0 31.045 0 20C0 8.955 8.955 0 20 0C31.045 0 40 8.955 40 20Z" fill="url(#paint0_linear_106_1143)"/>
<path opacity="0.05" d="M6.11901 19.466C14.274 15.771 23.852 11.762 25.327 11.182C28.579 9.903 29.997 11.21 29.775 13.295C29.502 15.85 28.208 23.285 27.412 28.612C26.946 31.729 25.258 32.684 23.353 31.475C21.908 30.558 16.94 27.305 15.633 26.193C14.742 25.435 14.121 24.585 14.753 23.719C14.938 23.466 15.411 22.956 15.674 22.702C16.993 21.424 16.815 21.149 15.22 22.29C15.03 22.426 13.928 23.225 13.475 23.527C12.365 24.267 11.344 24.307 9.61301 23.719C8.19701 23.238 6.83701 22.867 5.97901 22.496C4.79401 21.983 4.34001 20.272 6.11901 19.466Z" fill="black"/>
<path opacity="0.07" d="M6.83601 19.591C14.408 16.206 23.72 12.327 25.082 11.778C28.346 10.46 29.547 11.242 29.196 13.789C28.87 16.147 27.713 23.443 26.902 28.334C26.424 31.213 25.028 31.847 23.21 30.671C22.071 29.937 17.487 26.917 16.375 26.038C15.515 25.359 14.624 24.575 15.665 23.44C16.013 23.061 17.935 21.206 19.372 19.826C20.205 19.025 19.908 18.63 18.903 19.318C17.06 20.581 14.045 22.58 13.507 22.943C12.482 23.633 11.519 23.799 9.84301 23.272C8.52201 22.856 7.24601 22.453 6.58101 22.194C5.09501 21.618 5.07501 20.378 6.83601 19.591Z" fill="black"/>
<path d="M7.55301 19.717C14.543 16.642 23.588 12.893 24.837 12.374C28.112 11.016 29.117 11.276 28.616 14.284C28.256 16.446 27.218 23.603 26.39 28.058C25.899 30.7 24.797 31.013 23.065 29.87C22.232 29.32 18.027 26.539 17.114 25.886C16.281 25.291 15.132 24.575 16.573 23.165C17.086 22.663 20.447 19.453 23.066 16.955C23.409 16.627 22.978 16.088 22.582 16.351C19.052 18.692 14.158 21.941 13.535 22.364C12.594 23.003 11.69 23.296 10.068 22.83C8.84201 22.478 7.64501 22.058 7.17901 21.898C5.38401 21.282 5.81001 20.484 7.55301 19.717Z" fill="white"/>
</g>
<defs>
<linearGradient id="paint0_linear_106_1143" x1="5.858" y1="5.858" x2="34.142" y2="34.142" gradientUnits="userSpaceOnUse">
<stop stop-color="#33BEF0"/>
<stop offset="1" stop-color="#0A85D9"/>
</linearGradient>
<clipPath id="clip0_106_1143">
<rect width="40" height="40" fill="white"/>
</clipPath>
</defs>
</svg>
