<svg width="40" height="40" viewBox="0 0 40 40" fill="none" xmlns="http://www.w3.org/2000/svg">
<g clip-path="url(#clip0_106_1148)">
<path fill-rule="evenodd" clip-rule="evenodd" d="M1.01178 39.0066L3.68546 29.2457C2.036 26.3894 1.16859 23.1481 1.16958 19.8283C1.17454 9.44222 9.62632 0.992432 20.0134 0.992432C25.0541 0.994417 29.7841 2.95651 33.3421 6.51646C36.8991 10.0774 38.8582 14.8094 38.8562 19.8432C38.8522 30.2293 30.3985 38.68 20.0134 38.68C20.0124 38.68 20.0134 38.68 20.0134 38.68H20.0055C16.8524 38.6791 13.753 37.8881 11.0009 36.3865L1.01178 39.0066Z" fill="white"/>
<path fill-rule="evenodd" clip-rule="evenodd" d="M1.01176 39.5028C0.880752 39.5028 0.753717 39.4512 0.659433 39.3559C0.535376 39.2299 0.486746 39.0463 0.533391 38.8766L3.15249 29.3132C1.52883 26.4292 0.672335 23.154 0.67432 19.8293C0.67829 9.16832 9.35337 0.496216 20.0134 0.496216C25.1841 0.498201 30.0422 2.5119 33.6934 6.16613C37.3447 9.82136 39.3544 14.6784 39.3524 19.8432C39.3484 30.5032 30.6724 39.1763 20.0134 39.1763C16.8484 39.1753 13.7172 38.3942 10.9383 36.9165L1.1378 39.4859C1.09611 39.4978 1.05443 39.5028 1.01176 39.5028Z" fill="white"/>
<path fill-rule="evenodd" clip-rule="evenodd" d="M20.0134 0.992458C25.0541 0.994443 29.7842 2.95653 33.3421 6.51648C36.8991 10.0774 38.8582 14.8095 38.8562 19.8432C38.8523 30.2293 30.3985 38.6801 20.0134 38.6801H20.0055C16.8524 38.6791 13.753 37.8881 11.0009 36.3865L1.01182 39.0066L3.6855 29.2458C2.03604 26.3895 1.16863 23.1481 1.16962 19.8283C1.17458 9.44225 9.62636 0.992458 20.0134 0.992458ZM20.0134 0C9.08051 0 0.182123 8.89441 0.177161 19.8283C0.176168 23.1699 1.01976 26.4629 2.6196 29.3778L0.0540958 38.7456C-0.0391952 39.088 0.0560807 39.4532 0.30618 39.7053C0.494747 39.8958 0.749809 40 1.01182 40C1.09618 40 1.18054 39.9891 1.2639 39.9673L10.8778 37.4464C13.6845 38.9034 16.8306 39.6725 20.0055 39.6735C30.9464 39.6735 39.8447 30.7781 39.8497 19.8442C39.8517 14.5455 37.7903 9.56333 34.0458 5.81581C30.2993 2.06729 25.3161 0.00198492 20.0134 0Z" fill="#CFD8DC"/>
<path fill-rule="evenodd" clip-rule="evenodd" d="M31.0912 8.76543C28.1337 5.80592 24.2025 4.17531 20.0183 4.17432C11.38 4.17432 4.35437 11.197 4.3504 19.8294C4.34941 22.7879 5.17712 25.668 6.74521 28.162L7.11837 28.7545L5.5354 34.5316L11.4634 32.9774L12.036 33.3169C14.4397 34.744 17.1968 35.4983 20.0074 35.4993H20.0134C28.6458 35.4993 35.6714 28.4757 35.6744 19.8423C35.6754 15.659 34.0487 11.7249 31.0912 8.76543Z" fill="#40C351"/>
<path fill-rule="evenodd" clip-rule="evenodd" d="M15.3032 11.9541C14.9509 11.1701 14.5797 11.1542 14.2432 11.1403C13.9683 11.1284 13.6547 11.1294 13.3411 11.1294C13.0275 11.1294 12.5174 11.2475 12.0856 11.7189C11.6539 12.1904 10.4372 13.3287 10.4372 15.6451C10.4372 17.9615 12.1243 20.2005 12.3596 20.5141C12.5948 20.8277 15.6168 25.7334 20.4024 27.6211C24.3792 29.1892 25.1891 28.8776 26.0525 28.7991C26.9159 28.7207 28.8383 27.6608 29.2304 26.5612C29.6224 25.4615 29.6224 24.5197 29.5053 24.3232C29.3872 24.1266 29.0735 24.0095 28.6031 23.7733C28.1327 23.5371 25.8173 22.3988 25.3856 22.242C24.9539 22.0852 24.6402 22.0068 24.3256 22.4782C24.012 22.9486 23.1099 24.0095 22.835 24.3232C22.56 24.6378 22.2851 24.6775 21.8147 24.4413C21.3443 24.2051 19.8278 23.7088 18.0285 22.105C16.6291 20.8575 15.6843 19.3162 15.4094 18.8448C15.1345 18.3744 15.3796 18.1193 15.6158 17.8841C15.8272 17.6727 16.0862 17.3343 16.3224 17.0594C16.5577 16.7844 16.6361 16.5879 16.7929 16.2743C16.9497 15.9597 16.8713 15.6848 16.7532 15.4496C16.6371 15.2134 15.722 12.8851 15.3032 11.9541Z" fill="white"/>
</g>
<defs>
<clipPath id="clip0_106_1148">
<rect width="40" height="40" fill="white"/>
</clipPath>
</defs>
</svg>
